<svg
   xmlns:dc="http://purl.org/dc/elements/1.1/"
   xmlns:cc="http://creativecommons.org/ns#"
   xmlns:rdf="http://www.w3.org/1999/02/22-rdf-syntax-ns#"
   xmlns:svg="http://www.w3.org/2000/svg"
   xmlns="http://www.w3.org/2000/svg"
   xmlns:sodipodi="http://sodipodi.sourceforge.net/DTD/sodipodi-0.dtd"
   xmlns:inkscape="http://www.inkscape.org/namespaces/inkscape"
   width="1013.902"
   height="734.41278"
   id="svg2995"
   version="1.1"
   inkscape:version="0.48.2 r9819"
   sodipodi:docname="elk_siluette.svg">
  <defs id="defs2997" />
  <sodipodi:namedview
     id="base"
     pagecolor="#ffffff"
     bordercolor="#666666"
     borderopacity="1.0"
     inkscape:pageopacity="0.0"
     inkscape:pageshadow="2"
     inkscape:zoom="1.1288111"
     inkscape:cx="506.96387"
     inkscape:cy="331.77389"
     inkscape:document-units="px"
     inkscape:current-layer="layer1"
     showgrid="false"
     fit-margin-top="0"
     fit-margin-left="0"
     fit-margin-right="0"
     fit-margin-bottom="0"
     inkscape:window-width="1920"
     inkscape:window-height="1018"
     inkscape:window-x="-8"
     inkscape:window-y="-8"
     inkscape:window-maximized="1" />
  <metadata id="metadata3000">
    <rdf:RDF>
      <cc:Work rdf:about="">
        <dc:format>image/svg+xml</dc:format>
        <dc:type rdf:resource="http://purl.org/dc/dcmitype/StillImage" />
        <dc:title></dc:title>
      </cc:Work>
    </rdf:RDF>
  </metadata>
  <g
     inkscape:label="Layer 1"
     inkscape:groupmode="layer"
     id="layer1"
     transform="translate(132.72381,-145.52612)">
    <path
       style="fill:#000000;fill-opacity:1;stroke:#000000;stroke-width:3.3906548px;stroke-linecap:butt;stroke-linejoin:miter;stroke-opacity:1"
       d="m 20.194619,390.15487 c 0,0 5.67816,-70.53211 106.976741,-72.33153 0,0 23.70016,0.0979 56.00595,-4.83394 0,0 42.27901,-5.39941 146.49643,-4.09644 0,0 24.66817,-0.31365 37.70242,-8.36858 0,0 73.12265,-57.59827 180.91288,-3.52496 0,0 23.72974,8.77146 70.08213,8.38386 0,0 15.35804,0.10064 11.03014,-12.23189 0,0 -10.20407,-14.86375 8.51087,-10.36105 0,0 20.22883,5.52842 36.86165,14.3902 5.31399,2.83124 14.44429,5.01295 23.44851,1.11908 1.80187,-0.7792 21.5096,-6.40009 -0.41731,-17.65229 0,0 -12.80572,-7.32829 -21.48877,-9.95261 -7.60207,-2.29761 -30.99728,-2.16222 -45.784,-4.99715 -56.22275,-10.77909 -100.50206,-33.96988 -158.89081,-92.01277 0,0 -21.62781,-28.29465 11.18998,-10.24259 0,0 40.02316,28.8187 22.06613,-7.7796 0,0 -3.82173,-6.03312 6.29949,-0.50617 l 29.3691,16.66072 c 0,0 28.2945,15.74591 18.45752,-11.16028 0,0 -2.9433,-15.45219 10.75477,-3.20004 5.34143,4.77765 106.9108,117.87966 40.54135,-6.26083 0,0 -4.28647,-7.66427 4.53521,-1.69924 0,0 8.87493,6.62819 15.53561,14.76901 0,0 38.75606,46.27268 52.46216,63.19083 0,0 50.07203,60.37223 94.3182,-13.91895 1.66988,-2.80379 10.99406,-9.56534 6.77909,5.46181 -1.95028,6.95311 -13.07877,32.41818 19.14124,9.80754 0,0 24.17096,-18.96065 11.83232,6.05683 0,0 -2.93966,13.2503 10.50605,6.16339 0,0 38.23759,-21.22166 9.49957,10.24861 -19.38471,21.22766 -41.90161,23.63824 -78.91287,35.37228 -6.18607,1.96123 -14.77194,7.19347 -2.01014,16.51255 0,0 53.41729,28.88668 98.59561,43.46655 4.95387,1.59868 25.89072,6.59562 26.27252,36.26381 0,0 1.4609,28.40986 -0.175,31.04761 -4.6437,7.48864 -26.48285,6.7997 -48.75024,7.92155 0,0 -13.50484,-10.26045 -24.99083,-12.00703 l -23.23539,1.5333 c 0,0 -7.06923,-0.76673 -12.48956,10.68072 0,0 -23.397,39.11092 -38.08451,53.44805 -3.51407,3.43024 -16.34395,25.00561 -15.42609,-5.10065 l 0.42932,-23.72681 c 0,0 5.20725,-14.09988 -18.10516,-5.21907 0,0 -52.29462,17.25508 -72.85606,23.53998 -13.63394,4.16742 -19.42604,8.45657 -23.45455,19.57043 -6.5592,18.09551 2.53647,38.65342 -29.69804,66.45568 -5.57727,4.81038 -0.72087,14.39564 1.04193,21.27272 12.90936,50.36198 40.27866,88.21668 48.36497,103.5634 20.62571,39.14483 20.14456,72.12784 67.28704,131.40805 0,0 25.84626,30.95889 46.3552,45.3283 0,0 25.52361,18.63819 -12.66125,12.69668 0,0 -13.34348,-3.0757 -31.34071,-3.82184 -5.46176,-0.22645 -9.85778,-10.55356 -32.1547,-18.10535 0,0 -0.55346,-27.65219 -6.34078,-41.53604 0,0 -34.85428,-76.61862 -72.83771,-113.27621 0,0 -34.48143,-34.60309 -69.29429,-106.55338 0,0 -21.04938,-29.30358 -14.99983,0.20404 3.49945,17.06943 2.91322,32.0087 9.87235,52.26412 5.15305,14.99858 12.35819,48.86858 7.68471,54.10846 -38.95234,43.67327 -78.88408,75.84098 -124.22057,102.74853 -17.98734,10.67568 -34.23893,14.09681 -46.67811,17.0985 l -20.7813,3.00462 c 0,0 -22.33254,4.46403 -13.02824,-12.63461 l 22.21718,-30.81663 c 0,0 9.62111,-21.46211 44.12036,-11.55385 0,0 32.19029,6.08944 88.38891,-54.48695 0,0 18.13784,-15.1389 -1.17203,-51.96215 0,0 -29.29499,-32.35032 -46.91742,-98.00688 0,0 -4.74522,-29.98491 -33.25883,-27.69375 0,0 -97.61297,-2.16737 -145.39212,-23.68898 0,0 -29.59409,-15.30783 -37.5574,6.02109 0,0 -5.28419,21.44739 -59.13238,90.51095 0,0 -20.3779,16.10364 5.04415,50.31623 13.65487,18.37657 37.92105,85.7157 132.03754,177.26049 0,0 32.83257,22.38886 -8.45472,19.36623 0,0 -19.19017,-0.80457 -30.05298,-0.25463 -7.74485,0.39201 -4.65943,-12.306 -26.88835,-14.85785 0,0 3.20022,-26.61901 -2.46871,-43.18193 0,0 -67.78157,-104.33906 -129.275591,-167.8052 0,0 -19.47282,-9.78093 -7.26738,-36.45614 0,0 8.97702,-25.07064 -13.8631,-10.56539 -46.95317,29.81898 -74.80978,11.68403 -89.38973,112.6302 0,0 -10.006395,50.82289 -15.251772,75.97312 -3.219256,15.43565 5.686466,66.61566 -67.134187,115.51359 0,0 -25.83126,12.38276 -14.96428,-11.81169 7.42716,-16.53595 3.56131,-17.97197 39.78079,-57.25499 0,0 7.637552,-4.61803 19.80156,-35.96165 0,0 30.432619,-165.28826 31.261599,-184.04176 l 0.26956,-25.71614 c 0,0 -1.752496,-5.1983 6.19004,-10.17454 0,0 70.04978,-46.00571 60.19511,-85.59091 0,0 -2.61684,-11.80272 5.49151,-35.47914 0,0 2.42452,-7.20245 -4.45817,-5.6483 0,0 -29.69186008,8.39234 -15.65693,-20.43208 0,0 3.63228,-4.62991 5.64531,-12.80035 z"
       id="path2996"
       inkscape:connector-curvature="0"
       sodipodi:nodetypes="cccccccccsscssccccccsccccsscccsscscsccccscccssssscccsccccssssccccccccccccsccsccccscscscccccccccc"
       inkscape:export-xdpi="90"
       inkscape:export-ydpi="90" />
  </g>
</svg>
